<svg width="28" height="28" viewBox="0 0 28 28" fill="none" xmlns="http://www.w3.org/2000/svg">
<circle cx="13.7644" cy="13.7644" r="13.7644" fill="#00ED89"/>
<path d="M17.7585 8.2866C15.3158 7.84132 12.7791 7.84132 10.3364 8.2866C9.25591 8.50924 7.89361 9.75604 7.65873 10.7357C7.23595 12.6504 7.23595 14.6097 7.65873 16.5244C7.94059 17.504 9.30288 18.7508 10.3364 18.9735C10.3833 18.9735 10.4303 19.018 10.4303 19.0625V21.8678C10.4303 22.0014 10.6182 22.0905 10.7122 21.9569L12.1214 20.5765C12.1214 20.5765 13.2489 19.4633 13.4368 19.2852C13.4368 19.2852 13.4837 19.2406 13.5307 19.2406C14.94 19.2852 16.3962 19.1516 17.8055 18.9289C18.886 18.7063 20.2482 17.4595 20.4831 16.4799C20.9059 14.5651 20.9059 12.6059 20.4831 10.6911C20.2013 9.75604 18.839 8.50924 17.7585 8.2866ZM17.8055 16.658C17.5706 17.1033 17.2888 17.4595 16.819 17.6821C16.6781 17.7267 16.5372 17.7712 16.3962 17.8157C16.2083 17.7712 16.0674 17.7267 15.9265 17.6821C14.4232 17.1033 13.014 16.3017 11.8866 15.144C11.2759 14.4761 10.7591 13.7191 10.3364 12.9176C10.1484 12.5168 9.96055 12.1606 9.81962 11.7598C9.67869 11.4036 9.91357 11.0474 10.1484 10.7802C10.3833 10.513 10.6652 10.3349 10.994 10.2013C11.2289 10.0677 11.4638 10.1568 11.6517 10.3349C12.0275 10.7802 12.4033 11.2255 12.6851 11.7153C12.873 12.027 12.8261 12.3832 12.4972 12.6059C12.4033 12.6504 12.3563 12.6949 12.2624 12.784C12.2154 12.8285 12.1214 12.873 12.0745 12.9621C11.9805 13.0957 11.9805 13.2293 12.0275 13.3629C12.4033 14.387 13.1079 15.1885 14.1884 15.6338C14.3763 15.7229 14.5172 15.7674 14.7521 15.7674C15.0809 15.7229 15.2218 15.3666 15.4567 15.1885C15.6916 15.0104 15.9734 15.0104 16.2553 15.144C16.4902 15.2776 16.7251 15.4557 17.0069 15.6338C17.2418 15.8119 17.4767 15.9455 17.7116 16.1236C17.8525 16.2127 17.8995 16.4353 17.8055 16.658ZM15.8325 13.3183C15.7386 13.3183 15.7855 13.3183 15.8325 13.3183C15.6446 13.3183 15.5976 13.2293 15.5507 13.0957C15.5507 13.0066 15.5507 12.873 15.5037 12.784C15.4567 12.6059 15.3628 12.4278 15.1749 12.2942C15.0809 12.2496 14.987 12.2051 14.893 12.1606C14.7521 12.1161 14.6581 12.1161 14.5172 12.1161C14.3763 12.0715 14.3293 11.9825 14.3293 11.8489C14.3293 11.7598 14.4702 11.6708 14.5642 11.6708C15.3158 11.7153 15.8795 12.1161 15.9734 12.9621C15.9734 13.0066 15.9734 13.0957 15.9734 13.1402C15.9734 13.2293 15.9265 13.3183 15.8325 13.3183ZM15.3628 11.3591C15.1279 11.27 14.893 11.181 14.6111 11.1364C14.5172 11.1364 14.3763 11.0919 14.2823 11.0919C14.1414 11.0919 14.0474 11.0028 14.0944 10.8693C14.0944 10.7357 14.1884 10.6466 14.3293 10.6911C14.7991 10.7357 15.2218 10.8247 15.6446 11.0028C16.4902 11.4036 16.9599 12.0715 17.1009 12.9621C17.1009 13.0066 17.1009 13.0512 17.1009 13.0957C17.1009 13.1847 17.1009 13.2738 17.1009 13.4074C17.1009 13.4519 17.1009 13.4964 17.1009 13.541C17.0539 13.7191 16.7251 13.7636 16.6781 13.541C16.6781 13.4964 16.6311 13.4074 16.6311 13.3629C16.6311 12.9621 16.5372 12.5613 16.3493 12.2051C16.0674 11.8044 15.7386 11.5372 15.3628 11.3591ZM17.8995 14.0308C17.7585 14.0308 17.6646 13.8972 17.6646 13.7636C17.6646 13.4964 17.6176 13.2293 17.5706 12.9621C17.3827 11.5372 16.1614 10.3794 14.7051 10.1568C14.4702 10.1123 14.2353 10.1123 14.0474 10.0677C13.9065 10.0677 13.7186 10.0677 13.6716 9.88963C13.6247 9.75604 13.7656 9.62246 13.9065 9.62246C13.9535 9.62246 14.0005 9.62246 14.0005 9.62246C15.9265 9.66699 14.0944 9.62246 14.0005 9.62246C15.9734 9.66699 17.6176 10.9138 17.9464 12.784C17.9934 13.0957 18.0404 13.4074 18.0404 13.7636C18.1343 13.8972 18.0404 14.0308 17.8995 14.0308Z" fill="#5B6270"/>
</svg>
