<svg width="28" height="28" viewBox="0 0 28 28" fill="none" xmlns="http://www.w3.org/2000/svg">
<circle cx="13.7644" cy="13.7644" r="13.7644" fill="#00ED89"/>
<path d="M18.7601 8.53102C17.4005 7.17608 15.5876 6.42334 13.674 6.42334C9.69574 6.42334 6.47284 9.63504 6.47284 13.5995C6.47284 14.8541 6.82535 16.1086 7.42964 17.1625L6.42249 20.876L10.2497 19.8723C11.3072 20.4244 12.4654 20.7255 13.674 20.7255C17.6523 20.7255 20.8752 17.5138 20.8752 13.5493C20.8248 11.6925 20.1198 9.88596 18.7601 8.53102ZM17.1487 16.1588C16.9976 16.5603 16.2926 16.9617 15.9401 17.0119C15.6379 17.0621 15.2351 17.0621 14.8322 16.9617C14.5804 16.8614 14.2279 16.761 13.8251 16.5603C12.0122 15.8075 10.854 14.001 10.7533 13.8504C10.6525 13.75 9.99788 12.8969 9.99788 11.9936C9.99788 11.0903 10.4511 10.6889 10.6022 10.4882C10.7532 10.2874 10.9547 10.2874 11.1058 10.2874C11.2065 10.2874 11.3575 10.2874 11.4583 10.2874C11.559 10.2874 11.71 10.2372 11.8611 10.5885C12.0122 10.9398 12.3647 11.8431 12.4151 11.8933C12.4654 11.9936 12.4654 12.094 12.4151 12.1944C12.3647 12.2947 12.3143 12.3951 12.2136 12.4955C12.1129 12.5958 12.0122 12.7464 11.9618 12.7966C11.8611 12.8969 11.7604 12.9973 11.8611 13.1478C11.9618 13.3486 12.3143 13.9006 12.8683 14.4024C13.5733 15.0046 14.1272 15.2053 14.3286 15.3057C14.5301 15.4061 14.6308 15.3559 14.7315 15.2555C14.8322 15.1552 15.1847 14.7537 15.2854 14.553C15.3862 14.3522 15.5372 14.4024 15.6883 14.4526C15.8394 14.5028 16.7458 14.9544 16.8969 15.0548C17.0983 15.1552 17.199 15.2053 17.2494 15.2555C17.2998 15.4061 17.2998 15.7574 17.1487 16.1588Z" fill="#5B6270"/>
</svg>
