<svg width="28" height="28" viewBox="0 0 28 28" fill="none" xmlns="http://www.w3.org/2000/svg">
<circle cx="13.7644" cy="13.7644" r="13.7644" fill="#F59201"/>
<path d="M7.12344 13.563L10.288 14.743L11.5216 18.712C11.5752 18.9802 11.897 19.0339 12.1116 18.873L13.8815 17.4248C14.0424 17.2639 14.3106 17.2639 14.5252 17.4248L17.6897 19.7311C17.9042 19.892 18.226 19.7848 18.2797 19.5166L20.6396 8.25311C20.6933 7.98493 20.4251 7.71675 20.1569 7.82402L7.12344 12.8658C6.80163 12.973 6.80163 13.4558 7.12344 13.563ZM11.3607 14.153L17.5824 10.3449C17.6897 10.2913 17.7969 10.4522 17.6897 10.5058L12.5943 15.2794C12.4334 15.4403 12.2725 15.6548 12.2725 15.923L12.1116 17.2103C12.1116 17.3712 11.8434 17.4248 11.7897 17.2103L11.1461 14.8503C10.9852 14.5821 11.0925 14.2603 11.3607 14.153Z" fill="white"/>
</svg>
