<svg width="61" height="48" viewBox="0 0 61 48" fill="none" xmlns="http://www.w3.org/2000/svg">
<path fill-rule="evenodd" clip-rule="evenodd" d="M25.1963 21C21.8826 21 19.1963 23.6863 19.1963 27L19.1963 42C19.1963 45.3137 16.51 48 13.1963 48H6C2.68629 48 -3.01226e-07 45.3137 0 42L1.90896e-06 21V6C1.90896e-06 2.68629 2.6863 0 6.00001 0H19.1963H41.135H43.8773H54.3313C57.645 0 60.3313 2.68629 60.3313 6V42C60.3313 45.3137 57.645 48 54.3313 48H47.135C43.8213 48 41.135 45.3137 41.135 42V27C41.135 23.6863 38.4487 21 35.135 21H25.1963Z" fill="#0085FF"/>
</svg>
