<svg width="22" height="22" viewBox="0 0 22 22" fill="none" xmlns="http://www.w3.org/2000/svg">
<path d="M18.8692 0H3.13077C1.35384 0 0 1.35385 0 3.13077V18.8692C0 20.6462 1.35384 22 3.13077 22H18.8692C20.6462 22 22 20.6462 22 18.8692V3.13077C22 1.35385 20.6462 0 18.8692 0ZM11 17.6C14.6385 17.6 17.6 14.7231 17.6 11.2538C17.6 10.6615 17.5154 9.98462 17.3462 9.47692H19.2077V18.4462C19.2077 18.8692 18.8692 19.2923 18.3615 19.2923H3.63846C3.21539 19.2923 2.79231 18.9538 2.79231 18.4462V9.39231H4.73847C4.56924 9.98461 4.48462 10.5769 4.48462 11.1692C4.4 14.7231 7.36154 17.6 11 17.6ZM11 15.0615C8.63077 15.0615 6.76923 13.2 6.76923 10.9154C6.76923 8.63077 8.63077 6.76923 11 6.76923C13.3692 6.76923 15.2308 8.63077 15.2308 10.9154C15.2308 13.2846 13.3692 15.0615 11 15.0615ZM19.1231 6.00769C19.1231 6.51538 18.7 6.93846 18.1923 6.93846H15.8231C15.3154 6.93846 14.8923 6.51538 14.8923 6.00769V3.72308C14.8923 3.21538 15.3154 2.79231 15.8231 2.79231H18.1923C18.7 2.79231 19.1231 3.21538 19.1231 3.72308V6.00769Z" fill="#75849E"/>
</svg>
